<svg width="837" height="41" fill="none" xmlns="http://www.w3.org/2000/svg"><mask id="a" maskUnits="userSpaceOnUse" x="0" y="27" width="299" height="5"><path opacity=".2" fill="url(#paint0_linear)" d="M0 27h299v5H0z"/></mask><g mask="url(#a)"><path d="M1093 30H-257" stroke="#57592B" stroke-dasharray="4 6"/></g><mask id="b" maskUnits="userSpaceOnUse" x="538" y="27" width="299" height="5"><path opacity=".2" transform="matrix(-1 0 0 1 837 27)" fill="url(#paint1_linear)" d="M0 0h299v5H0z"/></mask><g mask="url(#b)"><path d="M-256 30h1350" stroke="#57592B" stroke-dasharray="4 6"/></g><path opacity=".5" d="M379.693 30h22" stroke="#57592B" stroke-dasharray="4 6"/><path opacity=".3" d="M328.693 30h22" stroke="#57592B" stroke-dasharray="4 6"/><path opacity=".5" d="M436.693 30h21" stroke="#57592B" stroke-dasharray="4 6"/><path opacity=".3" d="M486.693 30h21" stroke="#57592B" stroke-dasharray="4 6"/><path d="M418.932 9.148c-1.231 3.053-1.856 6.106-3.186 9.06-.246.59-2.231 1.985-2.969 2.133-2.364.59-3.777.034-6.781.624 2.118 2.069 2.841 2.89 4.663 4.515 1.083.985 2.428 2.97 2.083 4.447-.59 2.462-1.886 4.974-2.378 7.928 2.708-1.28 4.924-3.511 7.287-4.397.887-.345 2.216-.296 3.103.098 2.708 1.33 4.219 1.905 7.371 4.727-.739-3.545-1.428-5.45-1.822-8.454-.148-.936.197-2.216.837-2.955 1.576-1.97 3.447-3.693 5.613-6.007-2.856-.542-4.269-.083-6.681-.477-1.428-.247-3.364-1.788-3.856-3.216-.985-2.758-1.61-5.417-2.693-8.125.935.886.935.394 3.742 6.106 1.723 3.545 5.81 3.151 9.454 3.348 1.576.099 5.958.837 3.546 3.152-1.97 1.871-3.89 3.742-6.008 5.466-1.329 1.083-1.674 2.215-1.428 3.84.493 2.955.788 5.959 1.28 9.553-3.053-1.428-5.761-2.56-8.272-3.94-1.822-1.033-3.25-.935-4.924.198-2.118 1.379-4.383 2.61-6.599 3.791-.59.296-1.526.591-1.969.345-.394-.246-.542-1.28-.443-1.92.344-2.512.738-5.023 1.231-7.534.394-1.773.147-3.102-1.33-4.333-2.068-1.724-3.939-3.694-5.86-5.614-.393-.443-.935-1.33-.738-1.625.295-.542 1.083-.985 1.723-1.083 2.906-.345 5.909-.394 8.814-.886 1.035-.148 2.266-.936 2.807-1.773 1.33-2.216 2.905-6.205 4.383-6.992z" fill="#7C8033"/><path opacity=".7" d="M373.986 28.847a2.36 2.36 0 01.469-.103l-.012-.003c-.129-.035-.265-.046-.394-.08l-1.182-.24c-.667-.142-1.323-.279-1.99-.42-.644-.134-1.353-.07-1.361-.886-.009-1.516.195-3.076.286-4.591.017-.3-1.385.188-1.518.356a1268.96 1268.96 0 00-2.447 3.211c-.154.2-.332.395-.466.613-.021.033-.054.062-.076.094a2.131 2.131 0 00-.132.258c-.3-.055-.627-.054-.895-.088a46.13 46.13 0 00-1.284-.14c-.861-.078-1.724-.144-2.588-.21l-.383-.027c-.135-.01-1.417.307-1.267.5.836 1.064 1.609 2.123 2.532 3.095.622.638 1.014 1.29.696 2.196-.225.652-.556 1.276-.801 1.91-.156.39-.296.773-.463 1.16-.068.16-.139.332-.219.489-.055.112-.241.291-.047.178-.194.113-.24.19-.053.291.21.107.686-.07.894-.142a13.697 13.697 0 001.723-.747l.907-.469c.131-.067.25-.136.378-.191.075-.044.146-.075.233-.116.182-.116.22-.119.112.005-.093.064-.074.133.052.18.061.054.11.105.153.18.124.148.222.301.331.457.213.286.422.584.635.87.44.614.895 1.22 1.335 1.833.204.271 1.515-.064 1.533-.416.045-1.107.09-2.214.132-3.31.016-.53.003-1.092.07-1.621.09-.714.677-.837 1.252-1.102.976-.45 1.97-.871 2.942-1.349.709-.344 1.449-.756 1.72-1.536.092-.293-.738-.109-.807-.089zm-3.109 2.067c-.947.433-2.013.796-2.892 1.35-.833.526-.659 1.565-.702 2.431l-.049 1.17-.259-.35c-.431-.598-.791-1.368-1.602-1.395-.761-.026-1.5.336-2.159.68-.349.174-.689.363-1.037.537.139-.332.249-.697.357-.96.283-.726.613-1.439.892-2.152.32-.818.22-1.48-.342-2.153-.447-.54-.955-.993-1.387-1.541-.312-.39-.617-.802-.925-1.202.593.044 1.182.1 1.768.168.795.086 1.646.34 2.445.223.586-.072 1.284-.28 1.627-.81.149-.228.222-.45.391-.659.387-.507.778-1.025 1.166-1.532-.024.324-.033.64-.057.964-.04.664-.213 1.406-.126 2.065.104.74 1.09.725 1.664.84.788.16 1.572.333 2.372.496.394.08.802.202 1.217.25-.412.881-1.54 1.19-2.362 1.58zm92.697-2.067a2.354 2.354 0 00-.468-.103l.012-.003c.129-.035.265-.046.394-.08l1.182-.24c.667-.142 1.323-.279 1.99-.42.644-.134 1.353-.07 1.361-.886.009-1.516-.195-3.076-.286-4.591-.018-.3 1.385.188 1.518.356.814 1.067 1.629 2.133 2.447 3.211.154.2.332.395.466.613.021.033.054.062.076.094.045.077.094.166.131.258.3-.055.628-.054.896-.088.427-.05.854-.101 1.284-.14.86-.078 1.724-.144 2.587-.21l.384-.027c.135-.01 1.416.307 1.267.5-.836 1.064-1.609 2.123-2.532 3.095-.623.638-1.014 1.29-.696 2.196.225.652.556 1.276.801 1.91.155.39.296.773.462 1.16.068.16.14.332.219.489.056.112.242.291.048.178.194.113.24.19.053.291-.211.107-.686-.07-.894-.142a13.71 13.71 0 01-1.724-.747l-.906-.469c-.131-.067-.25-.136-.378-.191-.075-.044-.146-.075-.233-.116-.182-.116-.22-.119-.112.005.093.064.074.133-.052.18a.678.678 0 00-.153.18c-.124.148-.222.301-.331.457-.213.286-.423.584-.636.87-.439.614-.894 1.22-1.334 1.833-.204.271-1.515-.064-1.534-.416-.045-1.107-.09-2.214-.131-3.31-.016-.53-.004-1.092-.07-1.621-.09-.714-.677-.837-1.252-1.102-.977-.45-1.97-.871-2.942-1.349-.709-.344-1.449-.756-1.721-1.536-.091-.293.739-.109.807-.089zm3.11 2.067c.947.433 2.013.796 2.892 1.35.833.526.658 1.565.702 2.431l.049 1.17.259-.35c.431-.598.791-1.368 1.602-1.395.761-.026 1.5.336 2.159.68.348.174.689.363 1.037.537-.139-.332-.249-.697-.358-.96-.282-.726-.612-1.439-.891-2.152-.32-.818-.22-1.48.342-2.153.447-.54.955-.993 1.387-1.541.311-.39.616-.802.925-1.202-.593.044-1.182.1-1.768.168-.795.086-1.646.34-2.446.223-.585-.072-1.283-.28-1.627-.81-.149-.228-.221-.45-.39-.659-.388-.507-.778-1.025-1.166-1.532.024.324.033.64.057.964.039.664.213 1.406.125 2.065-.103.74-1.09.725-1.663.84-.788.16-1.573.333-2.372.496-.394.08-.802.202-1.217.25.412.881 1.54 1.19 2.362 1.58z" fill="#7C8033"/><path opacity=".5" d="M308.915 29.635a1.769 1.769 0 00-.351-.077l.009-.003c.097-.026.198-.034.295-.06l.887-.18 1.492-.314c.483-.1 1.015-.053 1.021-.665.007-1.137-.146-2.307-.214-3.443-.014-.226 1.038.141 1.138.267.611.8 1.222 1.6 1.835 2.409.116.15.249.295.35.46.016.023.04.045.056.07.035.057.071.124.099.193.225-.042.471-.04.672-.066.32-.038.64-.076.963-.105.645-.059 1.293-.108 1.941-.158l.287-.02c.102-.008 1.063.23.95.375-.626.798-1.207 1.593-1.899 2.322-.466.478-.76.967-.521 1.647.168.489.416.956.601 1.432.116.293.221.58.346.87.051.12.104.25.164.367.042.084.182.218.036.133.146.085.18.143.04.218-.158.08-.515-.052-.671-.106a10.263 10.263 0 01-1.292-.56l-.68-.352c-.098-.05-.188-.102-.284-.143-.056-.033-.109-.057-.174-.087-.137-.088-.166-.09-.084.003.069.048.055.1-.04.135a.53.53 0 00-.114.136c-.094.11-.167.225-.248.343-.16.214-.317.438-.477.652-.33.46-.671.914-1.001 1.375-.153.203-1.136-.049-1.15-.312-.034-.83-.068-1.661-.099-2.483-.012-.397-.002-.82-.052-1.216-.068-.535-.508-.627-.939-.826-.733-.338-1.478-.654-2.207-1.012-.531-.258-1.086-.567-1.29-1.152-.069-.22.554-.082.605-.067zm2.332 1.55c.71.325 1.51.598 2.169 1.012.625.396.494 1.175.527 1.825l.036.877.195-.262c.323-.45.593-1.027 1.201-1.047.571-.02 1.125.252 1.619.51.262.13.517.272.778.402-.104-.248-.187-.522-.268-.72-.212-.543-.459-1.078-.669-1.614-.239-.613-.165-1.11.257-1.614.336-.404.716-.745 1.04-1.156.234-.292.463-.6.694-.901a32.34 32.34 0 00-1.326.126c-.596.064-1.235.255-1.834.167-.439-.054-.963-.21-1.22-.608-.112-.17-.166-.337-.293-.494-.291-.38-.584-.769-.875-1.149.018.244.025.48.043.723.03.498.16 1.055.094 1.55-.078.554-.817.543-1.247.63-.591.12-1.18.248-1.78.371-.295.06-.601.152-.912.187.309.662 1.155.893 1.771 1.186zm216.227-1.55a1.79 1.79 0 01.351-.077l-.008-.003c-.097-.026-.199-.034-.296-.06l-.886-.18-1.493-.314c-.483-.1-1.015-.053-1.021-.665-.007-1.137.146-2.307.215-3.443.013-.226-1.039.141-1.139.267-.611.8-1.221 1.6-1.835 2.409-.115.15-.249.295-.349.46-.016.023-.041.045-.057.07a1.495 1.495 0 00-.099.193c-.225-.042-.471-.04-.672-.066-.32-.038-.64-.076-.963-.105-.645-.059-1.293-.108-1.94-.158l-.288-.02c-.101-.008-1.062.23-.95.375.627.798 1.207 1.593 1.899 2.322.467.478.761.967.522 1.647-.169.489-.417.956-.601 1.432-.116.293-.222.58-.347.87-.051.12-.104.25-.164.367-.041.084-.181.218-.036.133-.145.085-.18.143-.039.218.158.08.514-.052.67-.106.448-.157.877-.347 1.293-.56l.679-.352c.099-.05.188-.102.284-.143.056-.033.11-.057.175-.087.136-.088.165-.09.084.003-.07.048-.055.1.039.135.046.04.083.08.115.136.093.11.166.225.248.343.16.214.317.438.477.652.329.46.67.914 1 1.375.153.203 1.137-.049 1.151-.312.033-.83.067-1.661.098-2.483.012-.397.003-.82.052-1.216.068-.535.508-.627.939-.826.733-.338 1.478-.654 2.207-1.012.532-.258 1.087-.567 1.29-1.152.069-.22-.554-.082-.605-.067zm-2.332 1.55c-.71.325-1.51.598-2.169 1.012-.625.396-.494 1.175-.526 1.825l-.037.877-.194-.262c-.324-.45-.594-1.027-1.202-1.047-.571-.02-1.125.252-1.619.51-.261.13-.517.272-.778.402.104-.248.187-.522.268-.72.212-.543.459-1.078.669-1.614.24-.613.165-1.11-.257-1.614-.335-.404-.716-.745-1.04-1.156-.234-.292-.462-.6-.693-.901.444.033.886.075 1.325.126.597.064 1.235.255 1.835.167.439-.054.962-.21 1.22-.608.112-.17.166-.337.293-.494.29-.38.583-.769.874-1.149-.018.244-.025.48-.043.723-.029.498-.159 1.055-.094 1.55.078.554.818.543 1.248.63.591.12 1.179.248 1.779.371.295.06.601.152.913.187-.31.662-1.155.893-1.772 1.186z" fill="#7C8033"/><path d="M417.519 1.433A1.54 1.54 0 01418.971 0a1.182 1.182 0 011.163 1.157c0 .81-.803 1.408-1.414 1.408-.491 0-1.201-.434-1.201-1.132zm-13.623 9.528c-.497 0-1.203-.438-1.203-1.132a1.542 1.542 0 011.455-1.434 1.184 1.184 0 011.163 1.157c0 .811-.805 1.409-1.415 1.409zm31.998-1.409c0 .811-.804 1.409-1.414 1.409-.495 0-1.203-.436-1.203-1.132a1.542 1.542 0 011.454-1.434 1.185 1.185 0 011.163 1.157z" fill="#7C8033"/><defs><linearGradient id="paint0_linear" x1="299" y1="30.5" x2="0" y2="29.01" gradientUnits="userSpaceOnUse"><stop stop-color="#fff"/><stop offset="1" stop-color="#fff" stop-opacity="0"/></linearGradient><linearGradient id="paint1_linear" x1="299" y1="3.5" x2="0" y2="2.01" gradientUnits="userSpaceOnUse"><stop stop-color="#fff"/><stop offset="1" stop-color="#fff" stop-opacity="0"/></linearGradient></defs></svg>