<svg width="837" height="39" viewBox="0 0 837 39" fill="none" xmlns="http://www.w3.org/2000/svg">
<mask id="mask0" mask-type="alpha" maskUnits="userSpaceOnUse" x="0" y="24" width="300" height="6">
<rect opacity="0.2" x="0.000244141" y="24.9999" width="299" height="5" fill="url(#paint0_linear)"/>
</mask>
<g mask="url(#mask0)">
<path d="M1093 27.9999H-257" stroke="#E5457B" stroke-dasharray="4 6"/>
</g>
<mask id="mask1" mask-type="alpha" maskUnits="userSpaceOnUse" x="538" y="24" width="300" height="6">
<rect opacity="0.2" width="299" height="5" transform="matrix(-1 0 0 1 837 24.9999)" fill="url(#paint1_linear)"/>
</mask>
<g mask="url(#mask1)">
<path d="M-256 27.9999H1094" stroke="#E5457B" stroke-dasharray="4 6"/>
</g>
<path opacity="0.5" d="M379.693 27.9997H401.693" stroke="#E5457B" stroke-dasharray="4 6"/>
<path opacity="0.3" d="M328.693 27.9997H350.693" stroke="#E5457B" stroke-dasharray="4 6"/>
<path opacity="0.5" d="M436.693 27.9997H457.693" stroke="#E5457B" stroke-dasharray="4 6"/>
<path opacity="0.3" d="M486.693 27.9997H507.693" stroke="#E5457B" stroke-dasharray="4 6"/>
<path d="M416.519 1.43321C416.545 1.05837 416.707 0.705894 416.974 0.441951C417.242 0.178009 417.596 0.0207491 417.971 -0.000305176C418.277 0.00450844 418.57 0.127744 418.786 0.343491C419.003 0.559239 419.128 0.850689 419.135 1.15656C419.135 1.96763 418.332 2.56492 417.72 2.56492C417.23 2.56492 416.519 2.1311 416.519 1.43321ZM402.897 10.9606C402.4 10.9606 401.694 10.5226 401.694 9.82889C401.72 9.45371 401.882 9.10096 402.15 8.83697C402.417 8.57298 402.773 8.41593 403.148 8.39537C403.454 8.40019 403.746 8.52342 403.963 8.73917C404.18 8.95492 404.305 9.24637 404.311 9.55224C404.311 10.3633 403.506 10.9606 402.897 10.9606ZM434.895 9.55224C434.895 10.3633 434.09 10.9606 433.48 10.9606C432.986 10.9606 432.277 10.5247 432.277 9.82889C432.303 9.45371 432.465 9.10096 432.733 8.83697C433.001 8.57298 433.356 8.41593 433.732 8.39537C434.037 8.40071 434.329 8.52411 434.546 8.73975C434.763 8.95538 434.888 9.24654 434.895 9.55224Z" fill="#E5457B"/>
<path d="M315.876 25.7614C313.905 26.76 312.28 28.17 310.954 29.9111C309.965 31.2218 309.389 32.7019 309.297 34.5137C310.011 34.3051 310.649 34.1514 311.249 33.9334C314.212 32.8877 316.599 31.0699 318.368 28.4828C319.071 27.4658 319.499 26.3289 319.42 25.0661C318.556 24.9215 316.798 25.2933 315.876 25.7614ZM316.136 26.8123C314.655 28.7177 312.224 30.4215 311.576 30.7635C312.634 28.802 314.126 27.5006 316.136 26.8123ZM311.154 32.9052C312.942 30.3503 315.625 28.8012 317.965 26.8822C316.905 30.2286 314.306 31.8681 311.154 32.9052ZM308.644 24.1444C308.404 24.4226 308.137 24.6733 307.944 24.9777C307.543 25.6166 307.679 26.6213 308.201 27.1132C308.719 27.597 309.499 27.6719 310.113 27.232C310.71 26.8015 311.13 26.2156 311.223 25.4755C311.258 25.198 311.155 24.8502 311 24.6183C310.584 24.0111 309.346 23.7071 308.644 24.1444ZM309.796 26.5142C309.373 26.7583 308.797 26.6619 308.589 26.3208C308.377 25.9716 308.602 25.3482 309.038 25.1075C309.473 24.8667 310.102 24.9973 310.307 25.3719C310.516 25.7338 310.296 26.2359 309.796 26.5142Z" fill="#F3A4BF"/>
<path d="M525.876 32.6784C523.905 31.6798 522.28 30.2698 520.954 28.5287C519.965 27.218 519.389 25.7379 519.297 23.9261C520.011 24.1347 520.649 24.2884 521.249 24.5064C524.212 25.5521 526.599 27.3699 528.368 29.957C529.071 30.974 529.499 32.111 529.42 33.3738C528.556 33.5183 526.798 33.1465 525.876 32.6784ZM526.136 31.6275C524.655 29.7221 522.224 28.0183 521.576 27.6763C522.634 29.6378 524.126 30.9392 526.136 31.6275ZM521.154 25.5346C522.942 28.0895 525.625 29.6386 527.965 31.5576C526.905 28.2112 524.306 26.5717 521.154 25.5346ZM518.644 34.2955C518.404 34.0172 518.137 33.7665 517.944 33.4621C517.543 32.8232 517.679 31.8185 518.201 31.3266C518.719 30.8428 519.499 30.768 520.113 31.2078C520.71 31.6383 521.13 32.2242 521.223 32.9643C521.258 33.2418 521.155 33.5896 521 33.8215C520.584 34.4287 519.346 34.7327 518.644 34.2955ZM519.796 31.9256C519.373 31.6815 518.797 31.7779 518.589 32.119C518.377 32.4682 518.602 33.0916 519.038 33.3324C519.473 33.5731 520.102 33.4426 520.307 33.0679C520.516 32.706 520.296 32.2039 519.796 31.9256Z" fill="#F3A4BF"/>
<path d="M371.063 34.6537C370.541 34.8623 370.015 35.1598 369.471 35.1843C368.415 35.2393 367.355 35.136 366.295 35.0891C364.934 34.6612 363.583 34.3026 362.292 33.7976C360.267 33.0014 358.632 31.6128 357.051 30.1669C356.483 29.6473 356.572 29.1576 357.302 28.8522C357.996 28.5627 358.696 28.2968 359.411 28.0785C361.113 27.5568 362.819 27.5753 364.478 28.2822C365.844 28.8684 367.164 29.5812 368.249 30.5996C369.325 31.6051 370.279 32.7233 371.274 33.804C371.614 34.1583 371.511 34.4768 371.063 34.6537ZM367.634 33.8491C365.335 31.9686 362.242 29.8761 359.349 30.2034C359.853 32.0041 364.713 34.2724 367.634 33.8491ZM361.189 29.0546C363.536 30.303 365.852 31.5345 368.261 32.8165C367.019 30.1282 363.061 28.159 361.189 29.0546Z" fill="#ED7DA3"/>
<path d="M373.606 31.0871C373.23 33.089 372.168 34.4052 370.211 34.9582C370.023 35.0135 369.702 35.0246 369.613 34.925C368.883 34.0513 368.187 33.1333 367.932 32.0051C367.578 30.4345 367.822 28.8861 368.43 27.4261C368.994 26.0657 369.68 24.7495 370.332 23.4222C370.819 22.4379 371.626 21.73 372.445 21C373.617 22.2941 374.148 23.7872 374.226 25.4684C374.303 27.3597 373.96 29.2179 373.606 31.0871ZM369.348 33.0337C370.067 30.147 370.753 27.404 371.438 24.661C369.492 27.0943 368.153 29.6824 369.348 33.0337ZM372.976 25.026C371.538 26.3864 370.509 31.806 371.062 33.1664C373.031 31.9498 373.662 27.2049 372.976 25.026Z" fill="#ED7DA3"/>
<path d="M466.174 22.3217C466.696 22.1131 467.222 21.8156 467.766 21.7911C468.822 21.7361 469.882 21.8394 470.942 21.8863C472.303 22.3142 473.654 22.6728 474.945 23.1778C476.969 23.974 478.605 25.3626 480.185 26.8085C480.754 27.3281 480.665 27.8178 479.935 28.1232C479.241 28.4127 478.541 28.6786 477.826 28.8969C476.123 29.4186 474.418 29.4001 472.759 28.6932C471.393 28.107 470.073 27.3942 468.988 26.3758C467.912 25.3703 466.958 24.2521 465.963 23.1714C465.623 22.8171 465.726 22.4986 466.174 22.3217ZM469.603 23.1263C471.902 25.0068 474.995 27.0993 477.887 26.772C477.383 24.9713 472.524 22.703 469.603 23.1263ZM476.048 27.9208C473.701 26.6724 471.384 25.4409 468.976 24.1589C470.217 26.8472 474.176 28.8164 476.048 27.9208Z" fill="#ED7DA3"/>
<path d="M463.631 25.8883C464.007 23.8864 465.068 22.5702 467.026 22.0172C467.214 21.9619 467.535 21.9508 467.623 22.0504C468.353 22.9241 469.05 23.8421 469.305 24.9703C469.659 26.5409 469.415 28.0893 468.807 29.5493C468.243 30.9097 467.557 32.2259 466.904 33.5532C466.418 34.5376 465.61 35.2454 464.792 35.9754C463.62 34.6813 463.089 33.1882 463.011 31.507C462.934 29.6157 463.277 27.7575 463.631 25.8883ZM467.889 23.9417C467.17 26.8285 466.484 29.5714 465.798 32.3144C467.745 29.8811 469.083 27.293 467.889 23.9417ZM464.261 31.9494C465.699 30.589 466.727 25.1694 466.174 23.809C464.206 25.0256 463.575 29.7705 464.261 31.9494Z" fill="#ED7DA3"/>
<path d="M433.994 26.9591C431.575 26.1527 429.13 25.5227 426.636 25.4471C427.291 24.036 427.769 22.4988 428.097 20.8609C428.198 20.2813 428.173 19.6766 428.198 18.9206C427.543 19.6514 427.089 20.2561 426.535 20.7349C425.98 21.2137 425.35 21.6673 424.67 21.9697C421.218 23.5068 417.816 23.0028 414.464 21.6169C412.474 20.7853 410.811 19.4246 409.299 17.9126C408.82 17.4339 408.24 17.0811 407.711 16.6779C407.585 16.7535 407.484 16.8039 407.358 16.8795C407.409 16.9803 407.459 17.0811 407.484 17.2071C408.114 19.7522 408.593 22.3728 409.399 24.8675C407.157 24.7667 404.889 24.7164 402.646 24.666C401.789 24.5904 400.958 24.7667 400 24.8675C400.756 26.2283 401.411 27.463 402.117 28.6474C403.83 31.6209 405.796 34.4179 408.719 36.3079C410.861 37.6938 413.104 38.601 415.724 37.971C416.632 37.7442 417.488 37.3914 418.32 36.6858C418.017 36.711 417.866 36.6858 417.74 36.7362C415.926 37.1142 414.162 36.8118 412.449 36.1819C409.475 35.0479 407.081 33.1328 405.141 30.6129C404.259 29.4538 403.553 28.1938 403.125 26.7575C403.276 26.7323 403.402 26.7071 403.528 26.6819C405.72 26.5811 407.888 26.5055 410.055 26.7323C410.811 28.471 411.819 30.0837 413.33 31.3437C412.902 31.1673 412.474 30.9909 412.045 30.8397C411.239 30.5373 410.382 30.4365 409.525 30.2349C409.5 30.3105 409.475 30.3861 409.45 30.4365C409.677 30.5625 409.929 30.6885 410.155 30.8145C411.642 31.6713 413.104 32.528 414.59 33.3848C415.548 33.9392 416.531 34.4935 417.514 35.0227C417.589 35.0731 417.74 35.0983 417.841 35.0983C417.942 35.3503 418.068 35.6023 418.244 35.8291C419.832 38.0214 422.1 38.4498 424.544 38.097C426.636 37.7946 428.45 36.711 430.088 35.4007C432.154 33.7376 434.195 32.024 436.211 30.3105C436.841 29.7561 437.37 29.0758 438 28.3702C436.614 27.8662 435.304 27.3874 433.994 26.9591ZM434.246 29.4034C432.33 31.2681 430.365 33.1076 428.097 34.5439C426.535 35.5267 424.922 36.3583 423.032 36.3331C421.923 36.3331 420.89 36.0811 420.159 35.1235C419.58 34.3423 419.882 33.662 420.764 33.3848C422.226 32.9564 423.687 32.4776 425.098 31.9232C425.905 31.6209 426.61 31.1169 427.366 30.7137C427.341 30.6381 427.316 30.5877 427.265 30.5121C427.014 30.5625 426.736 30.6381 426.484 30.6885C424.796 31.0413 423.133 31.3689 421.445 31.6965C421.319 31.7217 421.193 31.7469 421.067 31.7721C423.007 30.5121 424.494 28.975 425.653 27.1858C427.215 27.0599 428.803 27.1858 430.415 27.4882C431.852 27.7654 433.212 28.2442 434.498 29.0506C434.397 29.2018 434.321 29.3026 434.246 29.4034ZM411.894 18.1646C414.313 20.0797 417.035 21.2137 420.185 20.9617C422.1 20.8105 423.36 19.223 423.133 17.3331C423.082 16.9299 422.755 16.4259 422.427 16.2495C422.201 16.1235 421.697 16.4511 421.344 16.6275C421.167 16.7283 421.041 16.9299 420.815 17.1819C420.789 16.4763 420.89 15.8463 420.714 15.2919C420.588 14.8384 420.159 14.4856 419.857 14.1076C419.479 14.41 418.975 14.6368 418.748 15.04C418.446 15.5439 418.32 16.1487 418.068 16.8543C417.917 16.4511 417.841 16.1235 417.665 15.8715C417.262 15.2919 416.858 14.6872 416.304 14.2588C416.077 14.0824 415.447 14.2084 415.145 14.41C414.716 14.6872 415.044 15.04 415.271 15.3927C415.523 15.7707 415.75 16.2243 415.825 16.6779C415.876 16.9551 415.674 17.4843 415.472 17.5347C414.641 17.837 412.549 15.6699 412.776 14.8132C412.827 14.662 412.927 14.5108 413.003 14.3848C413.935 12.9736 415.321 12.2681 416.909 12.1421C419.756 11.9405 422.049 13.2004 423.964 15.1912C424.72 15.9723 424.897 16.9803 424.746 18.0638C424.67 18.5174 424.594 18.9458 424.519 19.5506C425.199 18.8702 425.804 18.341 426.308 17.7362C426.913 16.9803 427.114 16.1235 426.636 15.1912C424.821 11.7137 421.873 10.0254 418.017 10.0002C415.22 9.97497 412.726 10.8317 410.886 13.0996C410.231 13.906 409.777 14.8132 410.307 15.8463C410.76 16.6779 411.189 17.6103 411.894 18.1646Z" fill="#E5457B"/>
<defs>
<linearGradient id="paint0_linear" x1="299" y1="28.4996" x2="0.000209652" y2="27.0098" gradientUnits="userSpaceOnUse">
<stop stop-color="white"/>
<stop offset="1" stop-color="white" stop-opacity="0"/>
</linearGradient>
<linearGradient id="paint1_linear" x1="299" y1="3.49976" x2="-3.44891e-05" y2="2.00989" gradientUnits="userSpaceOnUse">
<stop stop-color="white"/>
<stop offset="1" stop-color="white" stop-opacity="0"/>
</linearGradient>
</defs>
</svg>
