<svg width="837" height="39" fill="none" xmlns="http://www.w3.org/2000/svg"><mask id="a" maskUnits="userSpaceOnUse" x="0" y="24" width="300" height="6"><path opacity=".2" fill="url(#paint0_linear)" d="M0 25h299v5H0z"/></mask><g mask="url(#a)"><path d="M1093 28H-257" stroke="#E5457B" stroke-dasharray="4 6"/></g><mask id="b" maskUnits="userSpaceOnUse" x="538" y="24" width="300" height="6"><path opacity=".2" transform="matrix(-1 0 0 1 837 25)" fill="url(#paint1_linear)" d="M0 0h299v5H0z"/></mask><g mask="url(#b)"><path d="M-256 28h1350" stroke="#E5457B" stroke-dasharray="4 6"/></g><path opacity=".5" d="M379.693 28h22" stroke="#E5457B" stroke-dasharray="4 6"/><path opacity=".3" d="M328.693 28h22" stroke="#E5457B" stroke-dasharray="4 6"/><path opacity=".5" d="M436.693 28h21" stroke="#E5457B" stroke-dasharray="4 6"/><path opacity=".3" d="M486.693 28h21" stroke="#E5457B" stroke-dasharray="4 6"/><path d="M416.519 1.433A1.544 1.544 0 01417.971 0a1.18 1.18 0 011.164 1.157c0 .81-.803 1.408-1.415 1.408-.49 0-1.201-.434-1.201-1.132zm-13.622 9.528c-.497 0-1.203-.438-1.203-1.132a1.542 1.542 0 011.454-1.434 1.182 1.182 0 011.163 1.157c0 .811-.805 1.409-1.414 1.409zm31.998-1.409c0 .811-.805 1.409-1.415 1.409-.494 0-1.203-.436-1.203-1.132a1.542 1.542 0 011.455-1.434 1.185 1.185 0 011.163 1.157z" fill="#E5457B"/><path d="M315.876 25.761c-1.971.999-3.596 2.409-4.922 4.15-.989 1.31-1.565 2.79-1.657 4.603.714-.209 1.352-.363 1.952-.58 2.963-1.046 5.35-2.864 7.119-5.451.703-1.017 1.131-2.154 1.052-3.417-.864-.144-2.622.227-3.544.695zm.26 1.051c-1.481 1.906-3.912 3.61-4.56 3.951 1.058-1.961 2.55-3.262 4.56-3.95zm-4.982 6.093c1.788-2.555 4.471-4.104 6.811-6.023-1.06 3.347-3.659 4.986-6.811 6.023zm-2.51-8.76c-.24.278-.507.528-.7.833-.401.639-.265 1.643.257 2.135a1.492 1.492 0 001.912.119c.597-.43 1.017-1.016 1.11-1.756.035-.278-.068-.626-.223-.858-.416-.607-1.654-.91-2.356-.474zm1.152 2.37c-.423.243-.999.147-1.207-.194-.212-.35.013-.973.449-1.213.435-.241 1.064-.11 1.269.264.209.362-.011.864-.511 1.142zm216.08 6.163c-1.971-.998-3.596-2.408-4.922-4.15-.989-1.31-1.565-2.79-1.657-4.602.714.209 1.352.362 1.952.58 2.963 1.046 5.35 2.864 7.119 5.451.703 1.017 1.131 2.154 1.052 3.417-.864.144-2.622-.227-3.544-.696zm.26-1.05c-1.481-1.906-3.912-3.61-4.56-3.952 1.058 1.962 2.55 3.263 4.56 3.952zm-4.982-6.093c1.788 2.555 4.471 4.104 6.811 6.023-1.06-3.347-3.659-4.986-6.811-6.023zm-2.51 8.76c-.24-.278-.507-.529-.7-.833-.401-.639-.265-1.644.257-2.135a1.492 1.492 0 011.912-.12c.597.431 1.017 1.017 1.11 1.757.035.278-.068.626-.223.858-.416.607-1.654.91-2.356.473zm1.152-2.37c-.423-.244-.999-.147-1.207.194-.212.35.013.973.449 1.213.435.241 1.064.11 1.269-.264.209-.362-.011-.864-.511-1.142z" fill="#F3A4BF"/><path d="M371.063 34.654c-.522.208-1.048.506-1.592.53-1.056.055-2.116-.048-3.176-.095-1.361-.428-2.712-.786-4.003-1.291-2.025-.797-3.66-2.185-5.241-3.631-.568-.52-.479-1.01.251-1.315.694-.29 1.394-.555 2.109-.774 1.702-.521 3.408-.503 5.067.204 1.366.586 2.686 1.3 3.771 2.318 1.076 1.005 2.03 2.123 3.025 3.204.34.354.237.673-.211.85zm-3.429-.805c-2.299-1.88-5.392-3.973-8.285-3.646.504 1.801 5.364 4.07 8.285 3.646zm-6.445-4.794l7.072 3.761c-1.242-2.688-5.2-4.657-7.072-3.761z" fill="#ED7DA3"/><path d="M373.606 31.087c-.376 2.002-1.438 3.318-3.395 3.871-.188.056-.509.067-.598-.033-.73-.874-1.426-1.792-1.681-2.92-.354-1.57-.11-3.119.498-4.579.564-1.36 1.25-2.676 1.902-4.004.487-.984 1.294-1.692 2.113-2.422 1.172 1.294 1.703 2.787 1.781 4.468.077 1.892-.266 3.75-.62 5.62zm-4.258 1.947c.719-2.887 1.405-5.63 2.09-8.373-1.946 2.433-3.285 5.021-2.09 8.373zm3.628-8.008c-1.438 1.36-2.467 6.78-1.914 8.14 1.969-1.216 2.6-5.961 1.914-8.14zm93.198-2.704c.522-.209 1.048-.506 1.592-.53 1.056-.056 2.116.047 3.176.094 1.361.428 2.712.787 4.003 1.292 2.024.796 3.66 2.185 5.24 3.63.569.52.48 1.01-.25 1.315-.694.29-1.394.556-2.109.774-1.703.522-3.408.503-5.067-.204-1.366-.586-2.686-1.299-3.771-2.317-1.076-1.006-2.03-2.124-3.025-3.205-.34-.354-.237-.672.211-.85zm3.429.804c2.299 1.88 5.392 3.973 8.284 3.646-.504-1.8-5.363-4.069-8.284-3.646zm6.445 4.795l-7.072-3.762c1.241 2.688 5.2 4.657 7.072 3.762z" fill="#ED7DA3"/><path d="M463.631 25.888c.376-2.002 1.437-3.318 3.395-3.87.188-.056.509-.067.597.032.73.874 1.427 1.792 1.682 2.92.354 1.57.11 3.12-.498 4.58-.564 1.36-1.25 2.676-1.903 4.003-.486.985-1.294 1.692-2.112 2.422-1.172-1.294-1.703-2.787-1.781-4.468-.077-1.891.266-3.75.62-5.619zm4.258-1.946c-.719 2.886-1.405 5.63-2.091 8.372 1.947-2.433 3.285-5.021 2.091-8.372zm-3.628 8.007c1.438-1.36 2.466-6.78 1.913-8.14-1.968 1.217-2.599 5.961-1.913 8.14z" fill="#ED7DA3"/><path d="M433.994 26.96c-2.419-.807-4.864-1.437-7.358-1.513.655-1.411 1.133-2.948 1.461-4.586.101-.58.076-1.184.101-1.94-.655.73-1.109 1.335-1.663 1.814-.555.479-1.185.932-1.865 1.235-3.452 1.537-6.854 1.033-10.206-.353-1.99-.832-3.653-2.192-5.165-3.704-.479-.48-1.059-.832-1.588-1.235-.126.075-.227.126-.353.201.051.101.101.202.126.328.63 2.545 1.109 5.166 1.915 7.66-2.242-.1-4.51-.15-6.753-.201-.857-.076-1.688.1-2.646.201.756 1.361 1.411 2.596 2.117 3.78 1.713 2.974 3.679 5.77 6.602 7.66 2.142 1.387 4.385 2.294 7.005 1.664.908-.227 1.764-.58 2.596-1.285-.303.025-.454 0-.58.05-1.814.378-3.578.076-5.291-.554-2.974-1.134-5.368-3.05-7.308-5.57-.882-1.158-1.588-2.418-2.016-3.854.151-.026.277-.05.403-.076 2.192-.1 4.36-.176 6.527.05.756 1.739 1.764 3.352 3.275 4.612a25.852 25.852 0 00-1.285-.504c-.806-.303-1.663-.404-2.52-.605-.025.076-.05.151-.075.201.227.127.479.253.705.378 1.487.857 2.949 1.714 4.435 2.57.958.555 1.941 1.11 2.924 1.639.075.05.226.075.327.075.101.252.227.504.403.731 1.588 2.192 3.856 2.62 6.3 2.268 2.092-.302 3.906-1.386 5.544-2.696a298.85 298.85 0 006.123-5.09c.63-.555 1.159-1.235 1.789-1.94-1.386-.505-2.696-.984-4.006-1.412zm.252 2.443c-1.916 1.865-3.881 3.705-6.149 5.14-1.562.984-3.175 1.815-5.065 1.79-1.109 0-2.142-.252-2.873-1.21-.579-.78-.277-1.461.605-1.738a51.416 51.416 0 004.334-1.462c.807-.302 1.512-.806 2.268-1.21a.732.732 0 00-.101-.2c-.251.05-.529.125-.781.175-1.688.353-3.351.68-5.039 1.009l-.378.075a15.302 15.302 0 004.586-4.586c1.562-.126 3.15 0 4.762.302 1.437.277 2.797.756 4.083 1.563-.101.15-.177.252-.252.352zm-22.352-11.238c2.419 1.915 5.141 3.049 8.291 2.797 1.915-.151 3.175-1.739 2.948-3.629-.051-.403-.378-.907-.706-1.083-.226-.127-.73.201-1.083.378-.177.1-.303.302-.529.554-.026-.706.075-1.336-.101-1.89-.126-.454-.555-.806-.857-1.184-.378.302-.882.529-1.109.932-.302.504-.428 1.109-.68 1.814-.151-.403-.227-.73-.403-.982-.403-.58-.807-1.185-1.361-1.613-.227-.177-.857-.05-1.159.151-.429.277-.101.63.126.983.252.378.479.831.554 1.285.051.277-.151.806-.353.857-.831.302-2.923-1.865-2.696-2.722.051-.151.151-.302.227-.428.932-1.411 2.318-2.117 3.906-2.243 2.847-.201 5.14 1.058 7.055 3.05.756.78.933 1.788.782 2.872-.076.453-.152.882-.227 1.487.68-.68 1.285-1.21 1.789-1.815.605-.756.806-1.613.328-2.545-1.815-3.477-4.763-5.166-8.619-5.19-2.797-.026-5.291.83-7.131 3.099-.655.806-1.109 1.713-.579 2.746.453.832.882 1.764 1.587 2.319z" fill="#E5457B"/><defs><linearGradient id="paint0_linear" x1="299" y1="28.5" x2="0" y2="27.01" gradientUnits="userSpaceOnUse"><stop stop-color="#fff"/><stop offset="1" stop-color="#fff" stop-opacity="0"/></linearGradient><linearGradient id="paint1_linear" x1="299" y1="3.5" x2="0" y2="2.01" gradientUnits="userSpaceOnUse"><stop stop-color="#fff"/><stop offset="1" stop-color="#fff" stop-opacity="0"/></linearGradient></defs></svg>