<svg width="837" height="41" viewBox="0 0 837 41" fill="none" xmlns="http://www.w3.org/2000/svg">
<mask id="mask0" mask-type="alpha" maskUnits="userSpaceOnUse" x="0" y="27" width="299" height="5">
<rect opacity="0.2" y="26.9999" width="299" height="5" fill="url(#paint0_linear)"/>
</mask>
<g mask="url(#mask0)">
<path d="M1093 30H-257" stroke="#57592B" stroke-dasharray="4 6"/>
</g>
<mask id="mask1" mask-type="alpha" maskUnits="userSpaceOnUse" x="538" y="27" width="299" height="5">
<rect opacity="0.2" width="299" height="5" transform="matrix(-1 0 0 1 837 26.9999)" fill="url(#paint1_linear)"/>
</mask>
<g mask="url(#mask1)">
<path d="M-256 30H1094" stroke="#57592B" stroke-dasharray="4 6"/>
</g>
<path opacity="0.5" d="M379.693 29.9998H401.693" stroke="#57592B" stroke-dasharray="4 6"/>
<path opacity="0.3" d="M328.693 29.9998H350.693" stroke="#57592B" stroke-dasharray="4 6"/>
<path opacity="0.5" d="M436.693 29.9998H457.693" stroke="#57592B" stroke-dasharray="4 6"/>
<path opacity="0.3" d="M486.693 29.9998H507.693" stroke="#57592B" stroke-dasharray="4 6"/>
<path d="M418.932 9.14755C417.701 12.2005 417.076 15.2535 415.746 18.2079C415.5 18.7988 413.515 20.1928 412.777 20.3405C410.413 20.9314 409 20.3745 405.996 20.9654C408.114 23.0336 408.837 23.8555 410.659 25.4804C411.742 26.4653 413.087 28.4501 412.742 29.9273C412.152 32.3894 410.856 34.9007 410.364 37.8552C413.072 36.5749 415.288 34.3439 417.651 33.4575C418.538 33.1128 419.867 33.1621 420.754 33.556C423.462 34.8855 424.973 35.4612 428.125 38.2832C427.386 34.7378 426.697 32.8326 426.303 29.8288C426.155 28.8933 426.5 27.613 427.14 26.8744C428.716 24.9047 430.587 23.1813 432.753 20.867C429.897 20.3253 428.484 20.7836 426.072 20.3897C424.644 20.1435 422.708 18.6019 422.216 17.1739C421.231 14.4164 420.606 11.7573 419.523 9.04907C420.458 9.93541 420.458 9.443 423.265 15.155C424.988 18.7003 429.075 18.3064 432.719 18.5034C434.295 18.6019 438.677 19.3405 436.265 21.6548C434.295 23.526 432.375 25.3971 430.257 27.1206C428.928 28.2039 428.583 29.3364 428.829 30.9614C429.322 33.9159 429.617 36.9196 430.109 40.5142C427.056 39.0862 424.348 37.9536 421.837 36.5749C420.015 35.5408 418.587 35.6393 416.913 36.7719C414.795 38.1506 412.53 39.3816 410.314 40.5634C409.724 40.8589 408.788 41.1543 408.345 40.9081C407.951 40.6619 407.803 39.6278 407.902 38.9877C408.246 36.4764 408.64 33.9651 409.133 31.4538C409.527 29.6811 409.28 28.3516 407.803 27.1206C405.735 25.3971 403.864 23.4275 401.943 21.5071C401.55 21.0639 401.008 20.1776 401.205 19.8821C401.5 19.3405 402.288 18.8973 402.928 18.7988C405.834 18.4541 408.837 18.4049 411.742 17.9125C412.777 17.7648 414.008 16.9769 414.549 16.1398C415.879 13.9239 417.454 9.93541 418.932 9.14755Z" fill="#7C8033"/>
<path opacity="0.7" d="M373.986 28.8473C374.191 28.7877 374.339 28.7511 374.455 28.7438L374.443 28.7407C374.314 28.706 374.178 28.6952 374.049 28.6605C373.655 28.5804 373.261 28.5003 372.867 28.4202C372.2 28.2795 371.544 28.142 370.877 28.0014C370.233 27.8671 369.524 27.9313 369.516 27.1152C369.507 25.5991 369.711 24.0385 369.802 22.5239C369.819 22.2233 368.417 22.7124 368.284 22.8803C367.469 23.9467 366.655 25.0131 365.837 26.0913C365.683 26.2916 365.505 26.4857 365.371 26.7041C365.35 26.7366 365.317 26.7659 365.295 26.7983C365.25 26.8751 365.201 26.9637 365.163 27.0555C364.863 27.0006 364.536 27.0018 364.268 26.9682C363.841 26.9174 363.414 26.8666 362.984 26.8276C362.123 26.7497 361.26 26.6837 360.396 26.6177C360.273 26.6099 360.137 26.599 360.013 26.5913C359.878 26.5804 358.596 26.8985 358.746 27.0913C359.582 28.1546 360.355 29.2141 361.278 30.1863C361.9 30.8237 362.292 31.4756 361.974 32.3824C361.749 33.0343 361.418 33.658 361.173 34.2918C361.017 34.6827 360.877 35.0648 360.71 35.4526C360.642 35.6124 360.571 35.7842 360.491 35.9409C360.436 36.0532 360.25 36.2322 360.444 36.1189C360.25 36.2322 360.204 36.309 360.391 36.41C360.601 36.5172 361.077 36.3394 361.285 36.268C361.882 36.0591 362.454 35.8053 363.008 35.5214C363.315 35.362 363.608 35.2113 363.915 35.052C364.046 34.9853 364.165 34.9156 364.293 34.8608C364.368 34.8172 364.439 34.7855 364.526 34.745C364.708 34.6285 364.746 34.6261 364.638 34.7496C364.545 34.8138 364.564 34.8826 364.69 34.9291C364.751 34.9836 364.8 35.0349 364.843 35.11C364.967 35.2577 365.065 35.411 365.174 35.5674C365.387 35.8534 365.596 36.1513 365.809 36.4373C366.249 37.0512 366.704 37.6563 367.144 38.2702C367.348 38.5412 368.659 38.2056 368.677 37.8545C368.722 36.7472 368.767 35.64 368.809 34.5446C368.825 34.0147 368.812 33.4516 368.879 32.9225C368.969 32.209 369.556 32.0864 370.131 31.8206C371.107 31.3701 372.101 30.9496 373.073 30.4721C373.782 30.1279 374.522 29.7157 374.793 28.9363C374.885 28.6428 374.055 28.8274 373.986 28.8473ZM370.877 30.9141C369.93 31.3472 368.864 31.7101 367.985 32.2633C367.152 32.7904 367.326 33.8293 367.283 34.6954C367.267 35.0853 367.25 35.4752 367.234 35.8651C367.151 35.7537 367.059 35.6273 366.975 35.5159C366.544 34.917 366.184 34.1465 365.373 34.1199C364.612 34.0941 363.873 34.4557 363.214 34.8006C362.865 34.9743 362.525 35.163 362.177 35.3367C362.316 35.0051 362.426 34.6404 362.534 34.3769C362.817 33.6513 363.147 32.9383 363.426 32.2246C363.746 31.4072 363.646 30.7446 363.084 30.0723C362.637 29.5328 362.129 29.0788 361.697 28.5305C361.385 28.1418 361.08 27.7294 360.772 27.3289C361.365 27.3732 361.954 27.4293 362.54 27.4973C363.335 27.5832 364.186 27.8367 364.985 27.7201C365.571 27.6481 366.269 27.4407 366.612 26.9096C366.761 26.6824 366.834 26.4601 367.003 26.2511C367.39 25.7444 367.781 25.2258 368.169 24.7192C368.145 25.0434 368.136 25.359 368.112 25.6833C368.072 26.3469 367.899 27.0889 367.986 27.7484C368.09 28.4885 369.076 28.4729 369.65 28.5883C370.438 28.7486 371.222 28.9207 372.022 29.0841C372.416 29.1642 372.824 29.2862 373.239 29.3339C372.827 30.2155 371.699 30.5239 370.877 30.9141Z" fill="#7C8033"/>
<path opacity="0.7" d="M463.574 28.8473C463.37 28.7877 463.221 28.7511 463.106 28.7438L463.118 28.7407C463.247 28.706 463.383 28.6952 463.512 28.6605C463.906 28.5804 464.3 28.5003 464.694 28.4202C465.361 28.2795 466.017 28.142 466.684 28.0014C467.328 27.8671 468.037 27.9313 468.045 27.1152C468.054 25.5991 467.85 24.0385 467.759 22.5239C467.741 22.2233 469.144 22.7124 469.277 22.8803C470.091 23.9467 470.906 25.0131 471.724 26.0913C471.878 26.2916 472.056 26.4857 472.19 26.7041C472.211 26.7366 472.244 26.7659 472.266 26.7983C472.311 26.8751 472.36 26.9637 472.397 27.0555C472.697 27.0006 473.025 27.0018 473.293 26.9682C473.72 26.9174 474.147 26.8666 474.577 26.8276C475.437 26.7497 476.301 26.6837 477.164 26.6177C477.288 26.6099 477.424 26.599 477.548 26.5913C477.683 26.5804 478.964 26.8985 478.815 27.0913C477.979 28.1546 477.206 29.2141 476.283 30.1863C475.66 30.8237 475.269 31.4756 475.587 32.3824C475.812 33.0343 476.143 33.658 476.388 34.2918C476.543 34.6827 476.684 35.0648 476.85 35.4526C476.918 35.6124 476.99 35.7842 477.069 35.9409C477.125 36.0532 477.311 36.2322 477.117 36.1189C477.311 36.2322 477.357 36.309 477.17 36.41C476.959 36.5172 476.484 36.3394 476.276 36.268C475.678 36.0591 475.107 35.8053 474.552 35.5214C474.245 35.362 473.953 35.2113 473.646 35.052C473.515 34.9853 473.396 34.9156 473.268 34.8608C473.193 34.8172 473.122 34.7855 473.035 34.745C472.853 34.6285 472.815 34.6261 472.923 34.7496C473.016 34.8138 472.997 34.8826 472.871 34.9291C472.81 34.9836 472.76 35.0349 472.718 35.11C472.594 35.2577 472.496 35.411 472.387 35.5674C472.174 35.8534 471.964 36.1513 471.751 36.4373C471.312 37.0512 470.857 37.6563 470.417 38.2702C470.213 38.5412 468.902 38.2056 468.883 37.8545C468.838 36.7472 468.793 35.64 468.752 34.5446C468.736 34.0147 468.748 33.4516 468.682 32.9225C468.592 32.209 468.005 32.0864 467.43 31.8206C466.453 31.3701 465.46 30.9496 464.488 30.4721C463.779 30.1279 463.039 29.7157 462.767 28.9363C462.676 28.6428 463.506 28.8274 463.574 28.8473ZM466.684 30.9141C467.631 31.3472 468.697 31.7101 469.576 32.2633C470.409 32.7904 470.234 33.8293 470.278 34.6954C470.294 35.0853 470.31 35.4752 470.327 35.8651C470.41 35.7537 470.502 35.6273 470.586 35.5159C471.017 34.917 471.377 34.1465 472.188 34.1199C472.949 34.0941 473.688 34.4557 474.347 34.8006C474.695 34.9743 475.036 35.163 475.384 35.3367C475.245 35.0051 475.135 34.6404 475.026 34.3769C474.744 33.6513 474.414 32.9383 474.135 32.2246C473.815 31.4072 473.915 30.7446 474.477 30.0723C474.924 29.5328 475.432 29.0788 475.864 28.5305C476.175 28.1418 476.48 27.7294 476.789 27.3289C476.196 27.3732 475.607 27.4293 475.021 27.4973C474.226 27.5832 473.375 27.8367 472.575 27.7201C471.99 27.6481 471.292 27.4407 470.948 26.9096C470.799 26.6824 470.727 26.4601 470.558 26.2511C470.17 25.7444 469.78 25.2258 469.392 24.7192C469.416 25.0434 469.425 25.359 469.449 25.6833C469.488 26.3469 469.662 27.0889 469.574 27.7484C469.471 28.4885 468.484 28.4729 467.911 28.5883C467.123 28.7486 466.338 28.9207 465.539 29.0841C465.145 29.1642 464.737 29.2862 464.322 29.3339C464.734 30.2155 465.862 30.5239 466.684 30.9141Z" fill="#7C8033"/>
<path opacity="0.5" d="M308.915 29.6354C308.762 29.5908 308.65 29.5633 308.564 29.5579L308.573 29.5555C308.67 29.5295 308.771 29.5214 308.868 29.4954C309.164 29.4353 309.459 29.3752 309.755 29.3151C310.255 29.2096 310.747 29.1065 311.247 29.001C311.73 28.9003 312.262 28.9485 312.268 28.3364C312.275 27.1993 312.122 26.0289 312.054 24.8929C312.04 24.6675 313.092 25.0343 313.192 25.1602C313.803 25.96 314.414 26.7598 315.027 27.5685C315.143 27.7187 315.276 27.8642 315.377 28.0281C315.393 28.0524 315.417 28.0744 315.433 28.0987C315.468 28.1563 315.504 28.2228 315.532 28.2917C315.757 28.2504 316.003 28.2514 316.204 28.2261C316.524 28.188 316.844 28.1499 317.167 28.1207C317.812 28.0623 318.46 28.0128 319.108 27.9632C319.2 27.9574 319.302 27.9493 319.395 27.9435C319.497 27.9353 320.458 28.1739 320.345 28.3185C319.719 29.116 319.138 29.9106 318.446 30.6398C317.98 31.1178 317.686 31.6067 317.925 32.2868C318.093 32.7757 318.341 33.2435 318.526 33.7188C318.642 34.012 318.747 34.2986 318.872 34.5894C318.923 34.7093 318.976 34.8381 319.036 34.9556C319.078 35.0399 319.218 35.1742 319.072 35.0891C319.218 35.1742 319.252 35.2317 319.112 35.3075C318.954 35.3879 318.597 35.2546 318.441 35.201C317.993 35.0444 317.565 34.854 317.149 34.641C316.918 34.5215 316.699 34.4085 316.469 34.289C316.371 34.239 316.281 34.1867 316.185 34.1456C316.129 34.1129 316.076 34.0891 316.011 34.0588C315.874 33.9714 315.845 33.9696 315.927 34.0622C315.996 34.1104 315.982 34.162 315.887 34.1968C315.842 34.2377 315.805 34.2762 315.773 34.3325C315.679 34.4433 315.606 34.5582 315.525 34.6756C315.365 34.8901 315.208 35.1135 315.048 35.328C314.718 35.7884 314.377 36.2422 314.047 36.7026C313.894 36.9059 312.911 36.6542 312.897 36.3908C312.863 35.5604 312.829 34.73 312.798 33.9084C312.786 33.511 312.796 33.0887 312.746 32.6918C312.678 32.1567 312.238 32.0648 311.807 31.8655C311.074 31.5276 310.329 31.2122 309.6 30.8541C309.069 30.5959 308.514 30.2868 308.31 29.7022C308.241 29.4821 308.864 29.6205 308.915 29.6354ZM311.247 31.1856C311.957 31.5104 312.757 31.7826 313.416 32.1975C314.041 32.5928 313.91 33.372 313.943 34.0215C313.955 34.314 313.967 34.6064 313.979 34.8988C314.042 34.8153 314.111 34.7205 314.174 34.6369C314.497 34.1878 314.767 33.6098 315.375 33.5899C315.946 33.5705 316.5 33.8418 316.994 34.1005C317.256 34.2307 317.511 34.3723 317.772 34.5025C317.668 34.2538 317.585 33.9803 317.504 33.7827C317.292 33.2385 317.045 32.7037 316.835 32.1684C316.596 31.5554 316.67 31.0584 317.092 30.5543C317.428 30.1496 317.808 29.8091 318.132 29.3979C318.366 29.1064 318.595 28.7971 318.826 28.4967C318.381 28.5299 317.939 28.572 317.5 28.623C316.904 28.6874 316.265 28.8775 315.666 28.7901C315.227 28.7361 314.703 28.5805 314.446 28.1822C314.334 28.0118 314.28 27.8451 314.153 27.6883C313.862 27.3083 313.569 26.9194 313.278 26.5394C313.296 26.7826 313.303 27.0193 313.321 27.2625C313.351 27.7601 313.481 28.3167 313.415 28.8113C313.337 29.3663 312.598 29.3546 312.168 29.4412C311.577 29.5614 310.988 29.6905 310.388 29.8131C310.093 29.8731 309.787 29.9647 309.476 30.0004C309.785 30.6616 310.631 30.8929 311.247 31.1856Z" fill="#7C8033"/>
<path opacity="0.5" d="M527.474 29.6354C527.628 29.5908 527.739 29.5633 527.825 29.5579L527.817 29.5555C527.72 29.5295 527.618 29.5214 527.521 29.4954C527.226 29.4353 526.93 29.3752 526.635 29.3151C526.134 29.2096 525.643 29.1065 525.142 29.001C524.659 28.9003 524.127 28.9485 524.121 28.3364C524.114 27.1993 524.267 26.0289 524.336 24.8929C524.349 24.6675 523.297 25.0343 523.197 25.1602C522.586 25.96 521.976 26.7598 521.362 27.5685C521.247 27.7187 521.113 27.8642 521.013 28.0281C520.997 28.0524 520.972 28.0744 520.956 28.0987C520.922 28.1563 520.885 28.2228 520.857 28.2917C520.632 28.2504 520.386 28.2514 520.185 28.2261C519.865 28.188 519.545 28.1499 519.222 28.1207C518.577 28.0623 517.929 28.0128 517.282 27.9632C517.189 27.9574 517.087 27.9493 516.994 27.9435C516.893 27.9353 515.932 28.1739 516.044 28.3185C516.671 29.116 517.251 29.9106 517.943 30.6398C518.41 31.1178 518.704 31.6067 518.465 32.2868C518.296 32.7757 518.048 33.2435 517.864 33.7188C517.748 34.012 517.642 34.2986 517.517 34.5894C517.466 34.7093 517.413 34.8381 517.353 34.9556C517.312 35.0399 517.172 35.1742 517.317 35.0891C517.172 35.1742 517.137 35.2317 517.278 35.3075C517.436 35.3879 517.792 35.2546 517.948 35.201C518.396 35.0444 518.825 34.854 519.241 34.641C519.471 34.5215 519.69 34.4085 519.92 34.289C520.019 34.239 520.108 34.1867 520.204 34.1456C520.26 34.1129 520.314 34.0891 520.379 34.0588C520.515 33.9714 520.544 33.9696 520.463 34.0622C520.393 34.1104 520.408 34.162 520.502 34.1968C520.548 34.2377 520.585 34.2762 520.617 34.3325C520.71 34.4433 520.783 34.5582 520.865 34.6756C521.025 34.8901 521.182 35.1135 521.342 35.328C521.671 35.7884 522.012 36.2422 522.342 36.7026C522.495 36.9059 523.479 36.6542 523.493 36.3908C523.526 35.5604 523.56 34.73 523.591 33.9084C523.603 33.511 523.594 33.0887 523.643 32.6918C523.711 32.1567 524.151 32.0648 524.582 31.8655C525.315 31.5276 526.06 31.2122 526.789 30.8541C527.321 30.5959 527.876 30.2868 528.079 29.7022C528.148 29.4821 527.525 29.6205 527.474 29.6354ZM525.142 31.1856C524.432 31.5104 523.632 31.7826 522.973 32.1975C522.348 32.5928 522.479 33.372 522.447 34.0215C522.435 34.314 522.422 34.6064 522.41 34.8988C522.347 34.8153 522.278 34.7205 522.216 34.6369C521.892 34.1878 521.622 33.6098 521.014 33.5899C520.443 33.5705 519.889 33.8418 519.395 34.1005C519.134 34.2307 518.878 34.3723 518.617 34.5025C518.721 34.2538 518.804 33.9803 518.885 33.7827C519.097 33.2385 519.344 32.7037 519.554 32.1684C519.794 31.5554 519.719 31.0584 519.297 30.5543C518.962 30.1496 518.581 29.8091 518.257 29.3979C518.023 29.1064 517.795 28.7971 517.564 28.4967C518.008 28.5299 518.45 28.572 518.889 28.623C519.486 28.6874 520.124 28.8775 520.724 28.7901C521.163 28.7361 521.686 28.5805 521.944 28.1822C522.056 28.0118 522.11 27.8451 522.237 27.6883C522.527 27.3083 522.82 26.9194 523.111 26.5394C523.093 26.7826 523.086 27.0193 523.068 27.2625C523.039 27.7601 522.909 28.3167 522.974 28.8113C523.052 29.3663 523.792 29.3546 524.222 29.4412C524.813 29.5614 525.401 29.6905 526.001 29.8131C526.296 29.8731 526.602 29.9647 526.914 30.0004C526.604 30.6616 525.759 30.8929 525.142 31.1856Z" fill="#7C8033"/>
<path d="M417.519 1.43327C417.545 1.05843 417.706 0.705955 417.974 0.442012C418.241 0.17807 418.596 0.0208102 418.971 -0.000244141C419.277 0.00456947 419.569 0.127805 419.786 0.343553C420.003 0.5593 420.128 0.85075 420.134 1.15662C420.134 1.96769 419.331 2.56499 418.72 2.56499C418.229 2.56499 417.519 2.13116 417.519 1.43327ZM403.896 10.9607C403.399 10.9607 402.693 10.5226 402.693 9.82895C402.719 9.45377 402.881 9.10102 403.149 8.83703C403.417 8.57304 403.772 8.416 404.148 8.39544C404.453 8.40025 404.746 8.52349 404.963 8.73923C405.179 8.95498 405.304 9.24643 405.311 9.5523C405.311 10.3634 404.506 10.9607 403.896 10.9607ZM435.894 9.5523C435.894 10.3634 435.09 10.9607 434.48 10.9607C433.985 10.9607 433.277 10.5247 433.277 9.82895C433.303 9.45377 433.465 9.10102 433.733 8.83703C434.001 8.57304 434.356 8.416 434.731 8.39544C435.037 8.40077 435.329 8.52417 435.546 8.73981C435.762 8.95545 435.887 9.2466 435.894 9.5523Z" fill="#7C8033"/>
<defs>
<linearGradient id="paint0_linear" x1="299" y1="30.4997" x2="-3.44891e-05" y2="29.0098" gradientUnits="userSpaceOnUse">
<stop stop-color="white"/>
<stop offset="1" stop-color="white" stop-opacity="0"/>
</linearGradient>
<linearGradient id="paint1_linear" x1="299" y1="3.49976" x2="-3.44891e-05" y2="2.00989" gradientUnits="userSpaceOnUse">
<stop stop-color="white"/>
<stop offset="1" stop-color="white" stop-opacity="0"/>
</linearGradient>
</defs>
</svg>
